<svg width="18" height="27" viewBox="0 0 18 27" fill="none" xmlns="http://www.w3.org/2000/svg">
<path d="M4.78125 0C2.14736 0 0 2.19304 0 4.88298C0 6.77889 1.09683 8.38313 2.6488 9.19149C1.09683 9.99985 0 11.6041 0 13.5C0 15.3959 1.09683 17.0001 2.6488 17.8085C1.09683 18.6169 0 20.2211 0 22.117C0 24.807 2.14736 27 4.78125 27C7.41514 27 9.5625 24.807 9.5625 22.117V17.8085V15.8876C10.317 17.3499 11.7743 18.383 13.5 18.383C15.9786 18.383 18 16.3186 18 13.7872C18 11.7067 16.6085 10.0122 14.7458 9.44955C16.6239 8.79034 18 7.02013 18 4.88298C18 2.19304 15.8526 0 13.2188 0H9H4.78125ZM4.78125 1.14894H8.4375V8.61702H4.78125C2.75539 8.61702 1.125 6.95194 1.125 4.88298C1.125 2.81402 2.75539 1.14894 4.78125 1.14894ZM9.5625 1.14894H13.2188C15.2446 1.14894 16.875 2.81402 16.875 4.88298C16.875 6.95194 15.2446 8.61702 13.2188 8.61702H9.5625V1.14894ZM4.78125 9.76596H8.4375V17.234H4.78125C2.75539 17.234 1.125 15.569 1.125 13.5C1.125 11.431 2.75539 9.76596 4.78125 9.76596ZM9.5625 9.76596H11.4434C10.6362 10.2003 9.98783 10.8625 9.5625 11.6868V9.76596ZM13.5 10.3404C15.3706 10.3404 16.875 11.8768 16.875 13.7872C16.875 15.6977 15.3706 17.234 13.5 17.234C11.6294 17.234 10.125 15.6977 10.125 13.7872C10.125 11.8768 11.6294 10.3404 13.5 10.3404ZM4.78125 18.383H8.4375V22.117C8.4375 24.186 6.80711 25.8511 4.78125 25.8511C2.75539 25.8511 1.125 24.186 1.125 22.117C1.125 20.0481 2.75539 18.383 4.78125 18.383Z" fill="#2A7AE4"/>
</svg>
