<svg width="31" height="29" viewBox="0 0 31 29" fill="none" xmlns="http://www.w3.org/2000/svg">
<path d="M3.95673 16.5C3.95673 14.5 7.95673 14.5 7.95673 16.5V26.5C7.95673 28.5 3.95673 28.5 3.95673 26.5C3.95673 26.1915 3.95673 25.8559 3.95673 25.5M3.95673 16.5C3.95673 16.787 3.95673 17.1243 3.95673 17.5M3.95673 16.5C3.62356 12.3333 5.35722 4 14.9572 4C24.5572 4 26.2905 12.3333 25.9572 16.5M3.95673 17.5C3.29006 17.6667 1.45707 18.1056 1.45722 19M3.95673 17.5C3.95673 19.6484 3.95673 23.0536 3.95673 25.5M1.45722 19C1.45738 20 1.45722 22.5 1.45697 23.5C1.79028 24.1667 2.75666 25.5 3.95673 25.5M1.45722 19C0.123884 13.5 0.905883 1.00004 14.9572 1C29.957 0.999957 30.4572 16.5 28.4567 19M25.9572 16.5C25.9572 14.5 21.9572 14.5 21.9572 16.5V26.5C21.9572 28.5 25.9572 28.5 25.9572 26.5V25.5M25.9572 16.5V17.5M25.9572 17.5C26.6239 17.6667 28.4569 18.1056 28.4567 19M25.9572 17.5V25.5M28.4567 19C28.4566 20 28.4567 22.5 28.457 23.5C28.1237 24.1667 27.1573 25.5 25.9572 25.5" stroke="black" stroke-width="1.5" stroke-linecap="round" stroke-linejoin="round"/>
</svg>
