<svg width="29" height="28" viewBox="0 0 29 28" fill="none" xmlns="http://www.w3.org/2000/svg">
<path d="M22.0001 11L24.0001 12.5C27 14.5 29.0004 20.5 25.5004 24C18.8733 30.6271 11.0004 23 12.5004 18L10.4999 16.5C4.5 17.5 -2.89918 9.89998 3.50043 3.49999C5.33366 1.16666 12.5004 -1 17.5001 6.5M22.0001 11C23.0004 10 25.5001 7 23.5001 5M22.0001 11L17.5001 6.5M23.5001 5C21.5001 3 18.5001 5.33333 17.5001 6.5M23.5001 5L27.0001 1.5M7.50005 10.5L9.25005 8.75M11.0001 7L9.25005 8.75M9.25005 8.75L11.0001 10.5L7.50005 7M14.0001 12.5L16.0001 14.5M21.5001 17C22.6546 17.9621 23.5001 20 22.0001 21.5C20.3022 23.1979 18.1667 22.1667 17.5001 21.5C16.8334 20.6667 16.0001 18.6 18.0001 17C19.203 16.0376 21.0001 16.5833 21.5001 17Z" stroke="#2A7AE4" stroke-width="1.5" stroke-linecap="round" stroke-linejoin="round"/>
</svg>
