<svg width="26" height="26" viewBox="0 0 26 26" fill="none" xmlns="http://www.w3.org/2000/svg">
<path d="M13 0C5.82815 0 0 5.82815 0 13C0 20.1719 5.82815 26 13 26C20.1719 26 26 20.1719 26 13C26 5.82815 20.1719 0 13 0ZM13 1.13043C19.5607 1.13043 24.8696 6.43933 24.8696 13C24.8696 13.0403 24.8667 13.0801 24.8663 13.1203C24.5047 13.087 24.087 13.0553 23.5559 13.0364C22.8049 13.0098 21.8582 13.0175 20.785 13.0707C20.8248 12.7935 20.8527 12.5124 20.8534 12.2239C20.9082 11.1655 20.5527 10.1753 19.9747 9.3007C20.1143 8.81816 20.2782 8.20425 20.3191 7.5079C20.3658 6.71417 20.2973 5.83404 19.6601 5.2393L19.4967 5.08696H19.2737C17.7572 5.08696 16.7191 5.72181 16.0844 6.22512C15.1679 5.87036 14.1373 5.65217 13 5.65217C11.8562 5.65217 10.8157 5.87341 9.8615 6.22733C9.22712 5.72378 8.18818 5.08696 6.67001 5.08696H6.44811L6.28473 5.2382C5.66402 5.81457 5.60683 6.67056 5.64555 7.46043C5.67969 8.15694 5.83402 8.79034 5.97121 9.29628C5.38341 10.188 5.03066 11.2037 5.03066 12.2085C5.03066 12.4977 5.05755 12.7796 5.09689 13.0574C4.07624 13.0101 3.1664 13.0009 2.44412 13.0265C1.91299 13.0453 1.49525 13.0767 1.13375 13.1104C1.13341 13.0735 1.13043 13.037 1.13043 13C1.13043 6.43933 6.43933 1.13043 13 1.13043ZM7.00671 6.29136C8.14708 6.39942 9.00504 6.90864 9.40226 7.26172L9.6672 7.49575L9.99397 7.36218C10.8878 6.99412 11.8848 6.78261 13 6.78261C14.1152 6.78261 15.1124 6.99517 15.9387 7.35666L16.2699 7.50238L16.5403 7.26172C16.9377 6.90852 17.7971 6.39914 18.9381 6.29136C19.0898 6.54287 19.2216 6.90055 19.1898 7.44166C19.1517 8.08924 18.9785 8.79459 18.8476 9.21348L18.7626 9.48616L18.9315 9.71688C19.4907 10.4795 19.7759 11.3049 19.7274 12.1776L19.7263 12.193V12.2085C19.7263 13.6189 19.2184 14.7478 18.1366 15.5843C17.0549 16.4208 15.3472 16.9565 12.9437 16.9565C10.5402 16.9565 8.83142 16.4208 7.74966 15.5843C6.6679 14.7478 6.16109 13.6189 6.16109 12.2085C6.16109 11.3806 6.46004 10.4699 7.01223 9.71688L7.17782 9.49168L7.09834 9.22342C6.96736 8.7781 6.80681 8.05667 6.77488 7.40523C6.74832 6.8634 6.87656 6.52093 7.00671 6.29136ZM3.89139 13.5774C4.29082 13.5825 4.74865 13.604 5.20729 13.627C5.25111 13.8033 5.30107 13.9766 5.36184 14.1459C3.49246 14.1853 2.09398 14.3733 1.232 14.5345C1.19555 14.2517 1.16652 13.9665 1.15031 13.6778C1.78733 13.6174 2.68535 13.562 3.89139 13.5774ZM22.1086 13.5862C23.3138 13.5709 24.2115 13.6263 24.8486 13.6867C24.8324 13.9712 24.8039 14.2523 24.768 14.5312C23.8752 14.3674 22.4389 14.1794 20.5211 14.1492C20.5807 13.9833 20.6302 13.8129 20.6735 13.6403C21.1794 13.6132 21.673 13.5917 22.1086 13.5862ZM5.6025 14.7067C5.93978 15.3826 6.42173 15.9861 7.05859 16.4785C7.92934 17.1518 9.06135 17.6223 10.4433 17.8739C10.2625 18.0597 10.098 18.2636 9.95202 18.4789L9.9178 18.449C9.92091 18.4455 9.63682 18.5877 9.21238 18.6257C8.78795 18.6637 8.26439 18.6522 7.80044 18.6522C7.10805 18.6522 6.80308 18.325 6.31564 17.7293C6.04573 17.3655 5.71667 17.0709 5.39716 16.8472C5.07001 16.6182 4.79093 16.4566 4.44557 16.399L4.3992 16.3913H4.35173C4.08796 16.3913 3.83273 16.4104 3.59443 16.6827C3.47528 16.8189 3.39316 17.071 3.4465 17.2844C3.49985 17.4978 3.63483 17.6289 3.7556 17.7094C4.5281 18.2244 4.66462 19.2437 5.14878 20.1502C5.60091 21.0511 6.57668 21.4783 7.57413 21.4783H9.04348V24.1928C5.06876 22.7899 2.07134 19.333 1.3181 15.0931C2.1834 14.9301 3.63239 14.7341 5.6025 14.7067ZM20.2816 14.7111C22.2953 14.7283 23.7849 14.924 24.683 15.0898C23.9308 19.3313 20.9323 22.7895 16.9565 24.1928V21.252C16.9565 20.3563 16.6624 19.3687 16.1506 18.5451C15.9953 18.295 15.8125 18.0585 15.6086 17.8463C16.9172 17.5878 17.9922 17.1254 18.8288 16.4785C19.4643 15.9871 19.9452 15.3855 20.2816 14.7111ZM12.2648 18.1433H13.8478C14.3072 18.1433 14.7976 18.5094 15.1902 19.1412C15.5828 19.773 15.8261 20.6215 15.8261 21.252V24.5296C14.9203 24.7504 13.9743 24.8696 13 24.8696C12.0257 24.8696 11.0797 24.7504 10.1739 24.5296V21.252C10.1739 20.6354 10.4383 19.789 10.8573 19.1545C11.2762 18.5199 11.8054 18.1433 12.2648 18.1433ZM5.8266 18.8111C6.31595 19.3187 6.90838 19.7826 7.80044 19.7826C8.24084 19.7826 8.79053 19.7985 9.31284 19.7517C9.3147 19.7515 9.3165 19.7508 9.31836 19.7506C9.24955 19.9484 9.1982 20.1475 9.15498 20.3478H7.57413C6.87703 20.3478 6.38457 20.096 6.15778 19.6424L6.15336 19.6347L6.15005 19.6281C6.05713 19.4555 5.93515 19.1103 5.8266 18.8111Z" fill="#2A7AE4"/>
</svg>
