<svg width="1676" height="749" viewBox="0 0 1676 749" fill="none" xmlns="http://www.w3.org/2000/svg">
<g clip-path="url(#clip0_32114_47)">
<g opacity="0.2" filter="url(#filter0_f_32114_47)">
<path d="M532.951 542.845H588.602V480.475H666.769V430.676H588.602V387.59H676.166V337.791H532.951V542.845Z" fill="#FFAF00"/>
<path d="M692.582 384.661V495.976V542.845H748.172V495.976V384.661V337.791H692.582V384.661Z" fill="#FF007A"/>
<path d="M872.714 471.38H920.615C919.639 474.492 918.541 477.483 916.954 479.985C912.866 486.332 907.191 490.97 899.929 493.899C892.668 496.829 884.308 498.293 874.728 498.293C864.355 498.293 855.201 496.219 847.208 492.008C839.214 487.797 832.868 481.328 828.292 472.54C823.715 463.752 821.396 452.583 821.396 439.157C821.396 426.647 823.715 416.15 828.292 407.667C832.868 399.184 839.031 392.837 846.72 388.626C854.408 384.415 863.195 382.34 872.897 382.34C883.454 382.34 892.485 384.476 899.99 388.809C907.496 393.081 913.232 399.794 917.137 409.009H979.256C971.872 384.415 959.119 365.924 941.057 353.535C922.995 341.146 900.112 334.921 872.348 334.921C850.869 334.921 831.953 339.376 815.538 348.226C799.124 357.075 786.493 369.585 777.584 385.575C768.675 401.625 764.281 419.75 764.281 440.073C764.281 460.395 768.736 479.07 777.767 494.998C786.798 510.926 799.429 523.376 815.843 532.347C832.258 541.318 851.357 545.834 873.263 545.834C895.17 545.834 915.123 541.379 931.538 532.347C947.952 523.376 960.461 510.133 969.187 492.679C977.852 475.225 982.185 454.17 982.185 429.576H872.653V471.441L872.714 471.38Z" fill="#1EDF48"/>
<path d="M1170.01 337.791L1120.03 470.466L1070.12 337.791H1003.06L984.871 542.845H1040.52L1049.06 411.086L1099.41 542.845H1140.41L1190.75 411.086L1199.3 542.845H1254.95L1237.07 337.791H1170.01Z" fill="#00BEFF"/>
<path d="M1413.65 542.845H1472.23L1399.86 337.791H1329.57L1257.2 542.845H1315.78L1327 506.534H1402.36L1413.59 542.845H1413.65ZM1341.53 459.664L1364.71 384.661L1387.9 459.664H1341.53Z" fill="#8338EC"/>
</g>
<path d="M532.951 542.845H588.602V480.475H666.769V430.676H588.602V387.59H676.166V337.791H532.951V542.845Z" fill="#FFAF00"/>
<path d="M692.582 384.661V495.976V542.845H748.172V495.976V384.661V337.791H692.582V384.661Z" fill="#FF007A"/>
<path d="M872.714 471.38H920.615C919.639 474.492 918.541 477.483 916.954 479.985C912.866 486.332 907.191 490.97 899.929 493.899C892.668 496.829 884.308 498.293 874.728 498.293C864.355 498.293 855.201 496.219 847.208 492.008C839.214 487.797 832.868 481.328 828.292 472.54C823.715 463.752 821.396 452.583 821.396 439.157C821.396 426.647 823.715 416.15 828.292 407.667C832.868 399.184 839.031 392.837 846.72 388.626C854.408 384.415 863.195 382.34 872.897 382.34C883.454 382.34 892.485 384.476 899.99 388.809C907.496 393.081 913.232 399.794 917.137 409.009H979.256C971.872 384.415 959.119 365.924 941.057 353.535C922.995 341.146 900.112 334.921 872.348 334.921C850.869 334.921 831.953 339.376 815.538 348.226C799.124 357.075 786.493 369.585 777.584 385.575C768.675 401.625 764.281 419.75 764.281 440.073C764.281 460.395 768.736 479.07 777.767 494.998C786.798 510.926 799.429 523.376 815.843 532.347C832.258 541.318 851.357 545.834 873.263 545.834C895.17 545.834 915.123 541.379 931.538 532.347C947.952 523.376 960.461 510.133 969.187 492.679C977.852 475.225 982.185 454.17 982.185 429.576H872.653V471.441L872.714 471.38Z" fill="#1EDF48"/>
<path d="M1170.01 337.791L1120.03 470.466L1070.12 337.791H1003.06L984.871 542.845H1040.52L1049.06 411.086L1099.41 542.845H1140.41L1190.75 411.086L1199.3 542.845H1254.95L1237.07 337.791H1170.01Z" fill="#00BEFF"/>
<path d="M1413.65 542.845H1472.23L1399.86 337.791H1329.57L1257.2 542.845H1315.78L1327 506.534H1402.36L1413.59 542.845H1413.65ZM1341.53 459.664L1364.71 384.661L1387.9 459.664H1341.53Z" fill="#8338EC"/>
<path d="M269.469 233.433C266.723 245.15 261.049 254.121 252.506 260.346C243.902 266.632 232.857 269.745 219.433 269.745C208.51 269.745 199.113 267.67 191.302 263.459C183.492 259.248 177.512 253.145 173.423 245.15C169.335 237.156 167.26 227.391 167.26 215.857C167.26 204.323 169.335 194.497 173.423 186.258C177.512 178.02 183.492 171.856 191.302 167.645C199.113 163.434 208.51 161.359 219.433 161.359C232.918 161.359 243.902 164.471 252.506 170.757C261.11 176.982 266.723 186.197 269.469 198.281H327.195C324.876 180.705 318.957 165.265 309.499 152.022C300.041 138.717 287.592 128.465 272.154 121.08C256.716 113.757 239.142 110.095 219.433 110.095C197.526 110.095 178.366 114.55 161.891 123.399C145.415 132.248 132.662 144.698 123.692 160.565C114.722 176.494 110.206 194.68 110.206 215.186C110.206 235.691 114.661 254.182 123.692 270.111C132.723 286.039 145.415 298.489 161.891 307.46C178.427 316.431 197.587 320.947 219.433 320.947C239.142 320.947 256.655 317.285 272.032 309.962C287.409 302.639 299.735 292.386 309.255 279.204C318.774 266.022 324.815 250.765 327.561 233.372H269.591L269.469 233.433Z" fill="#242424"/>
<path d="M460.149 233.128C460.149 240.939 459.051 247.774 456.915 253.633C454.779 259.492 451.118 264.13 445.931 267.548C440.745 270.965 433.849 272.674 425.306 272.674C416.764 272.674 409.807 270.965 404.682 267.548C399.495 264.13 395.834 259.492 393.698 253.633C391.562 247.774 390.464 240.939 390.464 233.128V113.025H334.813V234.348C334.813 250.948 337.62 265.656 343.173 278.411C348.726 291.226 358.245 301.54 371.731 309.291C385.216 317.102 403.095 321.008 425.368 321.008C447.64 321.008 465.519 317.102 478.943 309.291C492.429 301.479 501.948 291.226 507.501 278.411C513.054 265.656 515.861 250.948 515.861 234.348V113.025H460.21V233.128H460.149Z" fill="#242424"/>
<path fill-rule="evenodd" clip-rule="evenodd" d="M615.09 250.763H591.414V318.138H535.763V113.084H630.101C647.125 113.084 661.709 115.769 673.913 121.14C686.117 126.571 695.392 134.383 701.86 144.758C708.268 155.071 711.502 167.704 711.502 182.534C711.502 204.016 704.301 220.738 689.961 232.76C684.958 236.91 679.039 240.083 672.693 242.83L714.37 318.138H651.092L615.09 250.763ZM654.326 183.694C654.326 175.699 651.641 169.718 646.271 165.812V165.873C640.901 161.968 633.091 160.015 622.961 160.015H591.353V206.884H622.961C633.335 206.884 641.145 204.992 646.393 201.148C651.702 197.303 654.326 191.688 654.326 183.694Z" fill="#242424"/>
<path d="M804.797 275.968C794.267 275.96 785.804 273.763 779.347 269.377C772.879 264.983 769.706 257.843 769.706 247.834H712.591C712.591 271.086 720.096 289.089 735.168 301.905C750.179 314.721 772.94 321.068 803.389 321.068C831.092 321.068 852.632 315.148 867.948 303.309C883.264 291.53 890.953 275.175 890.953 254.242C890.953 241.365 888.085 231.173 882.288 223.606C876.491 216.1 868.498 210.18 858.246 205.908C847.995 201.636 833.777 197.303 815.654 193.031C815.053 192.892 814.522 192.789 814.035 192.693H814.031C813.876 192.662 813.726 192.633 813.579 192.604C813.495 192.587 813.41 192.57 813.324 192.553L813.123 192.514H813.121C812.635 192.419 812.105 192.315 811.505 192.177H810.894C801.314 189.857 794.114 187.721 789.232 185.769C784.351 183.816 780.994 181.619 779.103 179.178C777.272 176.736 776.296 173.685 776.296 169.962C776.296 164.714 778.31 160.808 782.276 158.245C786.303 155.682 792.222 154.4 799.972 154.4C809.125 154.4 816.142 156.353 820.902 160.259C825.722 164.165 828.102 169.23 828.102 175.516H883.448C883.448 162.639 880.519 151.288 874.661 141.523C868.803 131.759 859.711 124.069 847.446 118.516C835.12 112.962 819.498 110.155 800.582 110.155C776.54 110.155 757.014 115.098 741.88 125.107C726.747 135.054 719.181 149.823 719.181 169.352C719.181 183.388 721.988 194.618 727.663 202.917C733.338 211.217 740.965 217.442 750.667 221.653C760.37 225.864 773.367 229.892 789.781 233.798C790.941 233.981 792.1 234.225 793.321 234.53H793.322C794.481 234.835 795.64 235.14 796.86 235.567C807.233 238.07 814.983 240.511 820.291 242.769C825.539 245.027 829.139 247.346 830.97 249.787C832.801 252.228 833.777 255.219 833.777 258.697C833.777 264.556 831.458 268.889 826.882 271.696C822.315 274.497 814.953 275.962 804.797 275.968Z" fill="#242424"/>
<path fill-rule="evenodd" clip-rule="evenodd" d="M1003.48 321.068C981.638 321.068 962.478 316.552 945.942 307.581V307.642C929.466 298.671 916.774 286.221 907.743 270.293C898.712 254.364 894.257 235.873 894.257 215.367C894.257 194.862 898.773 176.676 907.743 160.747C916.713 144.88 929.466 132.43 945.942 123.581C962.417 114.732 981.638 110.277 1003.48 110.277C1025.33 110.277 1044.37 114.671 1060.6 123.581C1076.83 132.43 1089.28 144.819 1097.94 160.747C1106.67 176.676 1111 194.679 1111 215.367C1111 236.056 1106.61 254.425 1097.94 270.415C1089.28 286.404 1076.83 298.915 1060.6 307.764C1044.37 316.613 1025.33 321.068 1003.48 321.068ZM975.414 167.643C967.604 171.854 961.624 178.079 957.535 186.257V186.196C953.447 194.435 951.372 204.26 951.372 215.795C951.372 227.329 953.447 237.093 957.535 245.088C961.624 253.083 967.604 259.186 975.414 263.396C983.225 267.607 992.561 269.682 1003.54 269.682C1014.53 269.682 1023.74 267.607 1031.25 263.519C1038.75 259.43 1044.43 253.327 1048.21 245.21C1052.06 237.154 1053.95 227.512 1053.95 215.795C1053.95 204.077 1052.06 194.191 1048.21 186.074C1044.43 178.018 1038.81 171.854 1031.25 167.643C1023.68 163.433 1014.47 161.358 1003.54 161.358C992.622 161.358 983.225 163.433 975.414 167.643Z" fill="#242424"/>
<path fill-rule="evenodd" clip-rule="evenodd" d="M234.007 347.312C215.457 340.965 195.32 337.791 173.658 337.791H110.075V542.845H173.658C195.747 542.845 216.006 539.794 234.434 533.752C252.862 527.711 267.995 517.092 279.833 501.835C291.671 486.578 297.529 466.011 297.529 440.013C297.529 414.015 291.549 394.914 279.65 379.657C267.751 364.4 252.496 353.598 233.946 347.312H234.007ZM231.932 472.663C226.257 480.414 219.301 485.723 211.002 488.653C202.704 491.582 193.795 493.047 184.214 493.047H165.786V387.59H184.214C193.612 387.59 202.46 389.116 210.88 392.167C219.301 395.219 226.318 400.711 231.993 408.706C237.668 416.701 240.475 427.442 240.475 440.929C240.475 454.416 237.668 465.035 231.993 472.724L231.932 472.663Z" fill="#242424"/>
<path d="M461.003 542.845H311.931V337.791H461.003V387.59H367.581V418.348H448.128V461.129H367.581V493.047H461.003V542.845Z" fill="#242424"/>
<path d="M1365.46 111.254L1153.35 111.01C1134.43 111.01 1123.94 132.919 1135.84 147.688L1269.29 312.586C1282.29 328.697 1308.34 320.092 1309.26 299.465L1312.8 219.518C1313.04 213.415 1315.79 207.679 1320.36 203.651L1380.28 150.678C1395.78 136.947 1386.14 111.376 1365.4 111.315L1365.46 111.254Z" fill="#242424"/>
<path fill-rule="evenodd" clip-rule="evenodd" d="M1582.38 0.000488281V98.1946H1545.46V554.806H1582.38V653H1484.2V616.078H98.1817V653H0V554.806H36.9173V98.1946H0V0.000488281H98.1817V36.9225H1484.2V0.000488281H1582.38ZM1557.97 24.4117H1508.6V73.7834H1557.97V24.4117ZM73.7735 24.4117H24.4081V73.7834H73.7735V24.4117ZM24.4081 628.589H73.7735V579.218H24.4081V628.589ZM1508.6 628.589H1557.97V579.218H1508.6V628.589ZM1484.14 554.806H1521.11V98.1946H1484.2V61.2726H98.1817V98.1946H61.2644V554.806H98.1817V591.728H1484.14V554.806Z" fill="#242424"/>
</g>
<defs>
<filter id="filter0_f_32114_47" x="330.029" y="131.999" width="1345.12" height="616.757" filterUnits="userSpaceOnUse" color-interpolation-filters="sRGB">
<feFlood flood-opacity="0" result="BackgroundImageFix"/>
<feBlend mode="normal" in="SourceGraphic" in2="BackgroundImageFix" result="shape"/>
<feGaussianBlur stdDeviation="101.461" result="effect1_foregroundBlur_32114_47"/>
</filter>
<clipPath id="clip0_32114_47">
<rect width="1676" height="749" fill="white"/>
</clipPath>
</defs>
</svg>
