<svg width="38" height="20" viewBox="0 0 38 20" fill="none" xmlns="http://www.w3.org/2000/svg">
<path d="M11.6927 16V18.5H7.19269V15.5M11.6927 16H9.69269M11.6927 16V11M7.19269 13H5.69269M7.19269 13V15.5M7.19269 13V4.5M7.19269 15.5H2.69269L2.69266 7.5M7.19269 4.5V1H11.6927V8.5M7.19269 4.5H2.69269L2.69266 7.5M2.69266 7.5C0.692652 8 0.192655 11 2.69281 12M26.1926 16.5V19H30.6926V16M26.1926 16.5H28.1926M26.1926 16.5V11M30.6926 13.5H32.1926M30.6926 13.5V16M30.6926 13.5V5M30.6926 16H35.1926L35.1926 12.4999M30.6926 5V1.5H26.1926V8.5M30.6926 5H35.1926L35.1926 8M35.1926 12.4999L35.1926 8M35.1926 12.4999C37.6926 11.4999 37.1926 8.49999 35.1926 8M26.1926 8.5L11.6927 8.5M26.1926 8.5V11M11.6927 8.5V11M11.6927 11H26.1926" stroke="#2A7AE4" stroke-width="1.5" stroke-linecap="round" stroke-linejoin="round"/>
</svg>
